# Blender v2.90.0 OBJ File: 'Cart.blend'
# www.blender.org
mtllib Grass_Chunk2.mtl
o grass2_Plane.009
v -1.529079 1.572322 -2.946356
v -1.203219 1.558583 -3.253962
v -1.548497 0.804223 -2.932621
v -1.222637 0.790485 -3.240227
v -0.983326 1.404470 -2.766093
v -0.869965 1.361857 -3.197751
v -1.377742 0.746072 -2.804678
v -1.264381 0.703460 -3.236336
v -1.076419 1.689727 -2.704733
v -1.521449 1.675842 -2.652291
v -1.089635 0.751619 -3.065256
v -1.534665 0.737734 -3.012814
v -1.809741 1.440319 -3.513237
v -1.832133 1.599799 -3.094836
v -1.330555 0.623592 -3.176284
v -1.352947 0.783073 -2.757882
v -0.995428 1.411130 -2.776037
v -0.882067 1.368518 -3.207695
v -1.389845 0.752733 -2.814622
v -1.276483 0.710120 -3.246280
v -1.202889 1.422666 -3.542113
v -1.644802 1.347680 -3.551354
v -1.095835 0.705937 -2.845666
v -1.537747 0.630951 -2.854908
v -1.516977 1.565662 -2.936412
v -1.191117 1.551923 -3.244018
v -1.536395 0.797563 -2.922677
v -1.210535 0.783825 -3.230283
v -1.215572 1.329670 -3.369519
v -0.869001 1.284202 -3.088777
v -1.456060 0.783880 -3.161034
v -1.109489 0.738413 -2.880292
v -1.445709 1.458772 -2.595989
v -1.791340 1.444359 -2.881168
v -1.214298 0.768348 -2.841561
v -1.559928 0.753935 -3.126740
v -1.797639 1.433658 -3.503293
v -1.820031 1.593138 -3.084891
v -1.318453 0.616932 -3.166340
v -1.340845 0.776412 -2.747938
v -1.064317 1.683066 -2.694789
v -1.509347 1.669182 -2.642347
v -1.077532 0.744958 -3.055312
v -1.522563 0.731074 -3.002870
v -1.190787 1.416005 -3.532169
v -1.632700 1.341019 -3.541410
v -1.083733 0.699277 -2.835723
v -1.525645 0.624290 -2.844964
vt 0.443535 0.637203
vt 0.529663 0.637203
vt 0.529663 0.784834
vt 0.443535 0.784834
vt 0.443535 0.637203
vt 0.443535 0.784834
vt 0.529663 0.784834
vt 0.529663 0.637203
vt 0.609115 0.902443
vt 0.609115 0.988572
vt 0.416026 0.988572
vt 0.416026 0.902443
vt 0.609115 0.902443
vt 0.609115 0.988572
vt 0.416026 0.988572
vt 0.416026 0.902443
vt 0.443535 0.637203
vt 0.529663 0.637203
vt 0.529663 0.784834
vt 0.443535 0.784834
vt 0.609115 0.902443
vt 0.609115 0.988572
vt 0.416026 0.988572
vt 0.416026 0.902443
vt 0.443535 0.637203
vt 0.443535 0.784834
vt 0.529663 0.784834
vt 0.529663 0.637203
vt 0.436808 0.890403
vt 0.436808 0.804275
vt 0.558186 0.804275
vt 0.558186 0.890403
vt 0.443535 0.637203
vt 0.529663 0.637203
vt 0.529663 0.784834
vt 0.443535 0.784834
vt 0.609115 0.902443
vt 0.416026 0.902443
vt 0.416026 0.988572
vt 0.609115 0.988572
vt 0.609115 0.902443
vt 0.416026 0.902443
vt 0.416026 0.988572
vt 0.609115 0.988572
vt 0.609115 0.902443
vt 0.416026 0.902443
vt 0.416026 0.988572
vt 0.609115 0.988572
vn -0.6863 0.0043 -0.7273
vn 0.8201 -0.5069 0.2654
vn 0.1203 -0.3576 0.9261
vn 0.8776 0.4617 -0.1290
vn -0.8201 0.5069 -0.2654
vn -0.1306 0.6808 0.7207
vn 0.6863 -0.0043 0.7273
vn 0.5075 -0.4934 -0.7064
vn -0.5612 -0.4379 0.7023
vn -0.8776 -0.4617 0.1290
vn -0.1203 0.3576 -0.9261
vn 0.1306 -0.6808 -0.7207
usemtl bush_grass_cart
s off
f 1/1/1 2/2/1 4/3/1 3/4/1
f 5/5/2 7/6/2 8/7/2 6/8/2
f 9/9/3 10/10/3 12/11/3 11/12/3
f 13/13/4 14/14/4 16/15/4 15/16/4
f 17/17/5 18/18/5 20/19/5 19/20/5
f 21/21/6 22/22/6 24/23/6 23/24/6
f 25/25/7 27/26/7 28/27/7 26/28/7
f 29/29/8 30/30/8 32/31/8 31/32/8
f 33/33/9 34/34/9 36/35/9 35/36/9
f 37/37/10 39/38/10 40/39/10 38/40/10
f 41/41/11 43/42/11 44/43/11 42/44/11
f 45/45/12 47/46/12 48/47/12 46/48/12
