# Blender v2.81 (sub 16) OBJ File: 'tree1.blend'
# www.blender.org
mtllib Kotte_MSH.mtl
o PineCone.001_Cube.011
v 1.182773 0.844299 0.011494
v 1.166776 1.101006 0.027491
v 1.182773 0.844299 -0.109248
v 1.166776 1.101006 -0.125245
v 1.303515 0.844299 0.011494
v 1.319512 1.101006 0.027491
v 1.303515 0.844299 -0.109248
v 1.319512 1.101006 -0.125245
v 1.173967 0.825576 -0.084695
v 1.173967 0.825576 -0.013059
v 1.173967 0.896500 0.020300
v 1.166494 1.048804 0.027773
v 1.153603 1.119728 -0.002515
v 1.153603 1.119728 -0.095239
v 1.166494 1.048805 -0.125527
v 1.173967 0.896500 -0.118054
v 1.278962 0.825576 -0.118054
v 1.207326 0.825576 -0.118054
v 1.196782 1.119728 -0.138418
v 1.289506 1.119728 -0.138418
v 1.319794 1.048804 -0.125527
v 1.312321 0.896500 -0.118054
v 1.312321 0.825576 -0.013059
v 1.312321 0.825576 -0.084695
v 1.332685 1.119728 -0.095239
v 1.332685 1.119728 -0.002515
v 1.319794 1.048804 0.027773
v 1.312321 0.896500 0.020300
v 1.207326 0.825576 0.020300
v 1.278962 0.825576 0.020300
v 1.289506 1.119728 0.040664
v 1.196782 1.119728 0.040664
v 1.155124 0.891492 -0.010704
v 1.145616 1.053812 -0.006580
v 1.155124 0.891492 -0.087051
v 1.145616 1.053812 -0.091174
v 1.204970 0.891492 -0.136897
v 1.200847 1.053812 -0.146405
v 1.281318 0.891492 -0.136897
v 1.285441 1.053812 -0.146405
v 1.331164 0.891492 -0.087051
v 1.340672 1.053812 -0.091174
v 1.331164 0.891492 -0.010704
v 1.340672 1.053812 -0.006580
v 1.281318 0.891492 0.039143
v 1.285441 1.053812 0.048651
v 1.204970 0.891492 0.039143
v 1.200847 1.053812 0.048651
v 1.215510 0.785515 -0.076512
v 1.270778 0.785515 -0.076512
v 1.215510 0.785515 -0.021243
v 1.270778 0.785515 -0.021243
v 1.292555 1.159789 -0.098288
v 1.193733 1.159789 -0.098288
v 1.292555 1.159789 0.000534
v 1.193733 1.159789 0.000534
vt 0.251031 0.534818
vt 0.281545 0.534153
vt 0.280683 0.556033
vt 0.252845 0.556639
vt 0.243352 0.609142
vt 0.239724 0.559020
vt 0.255367 0.610118
vt 0.247262 0.627777
vt 0.243320 0.610558
vt 0.256634 0.632662
vt 0.280492 0.609571
vt 0.293895 0.557840
vt 0.292454 0.608072
vt 0.239570 0.557901
vt 0.240102 0.540726
vt 0.280208 0.632149
vt 0.292720 0.539579
vt 0.294000 0.556715
vt 0.194553 0.535031
vt 0.225073 0.534719
vt 0.223958 0.556587
vt 0.196114 0.556872
vt 0.292547 0.609485
vt 0.289359 0.626860
vt 0.333751 0.555491
vt 0.361596 0.555530
vt 0.360165 0.609049
vt 0.335035 0.609014
vt 0.307188 0.556793
vt 0.304310 0.610254
vt 0.303786 0.613845
vt 0.296035 0.635053
vt 0.311235 0.610183
vt 0.307267 0.556792
vt 0.320579 0.557567
vt 0.323045 0.607760
vt 0.302965 0.532553
vt 0.307068 0.554062
vt 0.199023 0.632933
vt 0.198017 0.610376
vt 0.223147 0.610120
vt 0.222602 0.632693
vt 0.307331 0.554059
vt 0.310994 0.532471
vt 0.321380 0.539287
vt 0.320450 0.556445
vt 0.332443 0.533634
vt 0.362964 0.533676
vt 0.320015 0.634808
vt 0.311832 0.613763
vt 0.322980 0.609174
vt 0.326522 0.626481
vt 0.163509 0.557204
vt 0.191352 0.556920
vt 0.190541 0.610452
vt 0.165412 0.610709
vt 0.335779 0.631581
vt 0.374762 0.557642
vt 0.372158 0.607828
vt 0.359359 0.631614
vt 0.374011 0.539359
vt 0.374894 0.556520
vt 0.161948 0.535363
vt 0.192467 0.535052
vt 0.372219 0.609242
vt 0.368629 0.626538
vt 0.220102 0.651716
vt 0.201911 0.651901
vt 0.388076 0.556903
vt 0.383961 0.610283
vt 0.383354 0.613862
vt 0.375114 0.634884
vt 0.231601 0.611838
vt 0.226398 0.558553
vt 0.384416 0.532572
vt 0.388019 0.554170
vt 0.166418 0.633266
vt 0.189996 0.633025
vt 0.226399 0.555819
vt 0.229561 0.534152
vt 0.240949 0.636253
vt 0.232281 0.615403
vt 0.318498 0.495299
vt 0.318312 0.477107
vt 0.336504 0.476922
vt 0.336689 0.495113
vt 0.356639 0.650607
vt 0.338447 0.650582
vt 0.285875 0.651329
vt 0.280661 0.632864
vt 0.187497 0.652048
vt 0.169305 0.652234
vt 0.335341 0.632306
vt 0.330504 0.650873
vt 0.277929 0.651199
vt 0.259741 0.651596
vt 0.362641 0.650518
vt 0.374425 0.635376
vt 0.341913 0.472960
vt 0.374440 0.472628
vt 0.374772 0.505155
vt 0.342245 0.505486
vt 0.253738 0.651629
vt 0.241648 0.636731
vt 0.193359 0.516377
vt 0.225885 0.516045
vt 0.249621 0.516179
vt 0.282142 0.515471
vt 0.320099 0.535035
vt 0.314953 0.523728
vt 0.331465 0.514968
vt 0.160754 0.516710
vt 0.193280 0.516378
vt 0.298829 0.523892
vt 0.293915 0.535302
vt 0.363993 0.515012
vt 0.238723 0.536505
vt 0.233317 0.525320
vt 0.380481 0.523818
vt 0.375304 0.535111
vn -0.8608 0.4226 0.2835
vn -0.8608 0.4226 -0.2835
vn -0.9676 0.0142 -0.2521
vn -0.9676 0.0142 0.2521
vn -0.6993 -0.1481 0.6993
vn -0.7070 -0.0142 0.7070
vn -0.9496 -0.1681 0.2646
vn -0.6613 -0.3540 0.6613
vn -0.8031 -0.5228 0.2859
vn -0.9496 -0.1681 -0.2646
vn -0.7070 -0.0142 -0.7070
vn -0.6993 -0.1481 -0.6993
vn -0.6909 0.2127 0.6909
vn -0.8031 -0.5228 -0.2859
vn -0.6909 0.2127 -0.6909
vn -0.2835 0.4226 -0.8608
vn 0.2835 0.4226 -0.8608
vn 0.2521 0.0142 -0.9676
vn -0.2521 0.0142 -0.9676
vn -0.6613 -0.3540 -0.6613
vn 0.9676 0.0142 -0.2521
vn 0.9676 0.0142 0.2521
vn 0.9496 -0.1681 0.2646
vn 0.9496 -0.1681 -0.2646
vn -0.2646 -0.1681 -0.9496
vn -0.2859 -0.5228 -0.8031
vn 0.2646 -0.1681 -0.9496
vn 0.7070 -0.0142 -0.7070
vn 0.6993 -0.1481 -0.6993
vn 0.2859 -0.5228 -0.8031
vn 0.6909 0.2127 -0.6909
vn 0.8608 0.4226 -0.2835
vn 0.8608 0.4226 0.2835
vn 0.6613 -0.3540 -0.6613
vn 0.2521 0.0142 0.9676
vn -0.2521 0.0142 0.9676
vn -0.2646 -0.1681 0.9496
vn 0.2646 -0.1681 0.9496
vn 0.8031 -0.5228 -0.2859
vn 0.7070 -0.0142 0.7070
vn 0.6993 -0.1481 0.6993
vn 0.8031 -0.5228 0.2859
vn 0.6909 0.2127 0.6909
vn 0.2835 0.4226 0.8608
vn -0.2835 0.4226 0.8608
vn 0.6613 -0.3540 0.6613
vn 0.3228 -0.8897 -0.3228
vn -0.3228 -0.8897 -0.3228
vn 0.2859 -0.5228 0.8031
vn -0.2859 -0.5228 0.8031
vn 0.3228 -0.8897 0.3228
vn -0.3228 -0.8897 0.3228
vn -0.3498 0.8690 -0.3498
vn -0.3498 0.8690 0.3498
vn 0.3498 0.8690 0.3498
vn 0.3498 0.8690 -0.3498
usemtl Checker.001
s 1
f 13/1/1 14/2/2 36/3/3 34/4/4
f 11/5/5 12/6/6 34/4/4 33/7/7
f 1/8/8 11/9/5 33/7/7 10/10/9
f 35/11/10 36/3/3 15/12/11 16/13/12
f 12/14/6 2/15/13 13/1/1 34/4/4
f 10/10/9 33/7/7 35/11/10 9/16/14
f 36/3/3 14/2/2 4/17/15 15/18/11
f 19/19/16 20/20/17 40/21/18 38/22/19
f 9/16/14 35/11/10 16/23/12 3/24/20
f 42/25/21 44/26/22 43/27/23 41/28/24
f 15/12/11 38/29/19 37/30/25 16/13/12
f 3/24/20 16/23/12 37/31/25 18/32/26
f 39/33/27 40/34/18 21/35/28 22/36/29
f 15/18/11 4/17/15 19/37/16 38/38/19
f 18/39/26 37/40/25 39/41/27 17/42/30
f 40/43/18 20/44/17 8/45/31 21/46/28
f 25/47/32 26/48/33 44/26/22 42/25/21
f 17/49/30 39/50/27 22/51/29 7/52/34
f 46/53/35 48/54/36 47/55/37 45/56/38
f 21/35/28 42/25/21 41/28/24 22/36/29
f 7/52/34 22/51/29 41/28/24 24/57/39
f 43/27/23 44/26/22 27/58/40 28/59/41
f 21/46/28 8/45/31 25/47/32 42/25/21
f 24/57/39 41/28/24 43/27/23 23/60/42
f 44/26/22 26/48/33 6/61/43 27/62/40
f 31/63/44 32/64/45 48/54/36 46/53/35
f 23/60/42 43/27/23 28/65/41 5/66/46
f 17/42/30 50/67/47 49/68/48 18/39/26
f 27/58/40 46/69/35 45/70/38 28/59/41
f 5/66/46 28/65/41 45/71/38 30/72/49
f 47/73/37 48/74/36 12/6/6 11/5/5
f 27/62/40 6/61/43 31/75/44 46/76/35
f 30/77/49 45/56/38 47/55/37 29/78/50
f 48/79/36 32/80/45 2/15/13 12/14/6
f 29/81/50 47/82/37 11/9/5 1/8/8
f 50/83/47 52/84/51 51/85/52 49/86/48
f 23/60/42 52/87/51 50/88/47 24/57/39
f 3/24/20 18/32/26 49/89/48 9/90/14
f 51/91/52 52/92/51 30/77/49 29/78/50
f 17/49/30 7/52/34 24/93/39 50/94/47
f 9/16/14 49/95/48 51/96/52 10/10/9
f 52/97/51 23/60/42 5/66/46 30/98/49
f 54/99/53 56/100/54 55/101/55 53/102/56
f 10/10/9 51/103/52 29/104/50 1/8/8
f 19/19/16 54/105/53 53/106/56 20/20/17
f 13/1/1 56/107/54 54/108/53 14/2/2
f 8/109/31 20/110/17 53/111/56 25/47/32
f 55/112/55 56/113/54 32/64/45 31/63/44
f 19/114/16 4/115/15 14/2/2 54/108/53
f 25/47/32 53/111/56 55/116/55 26/48/33
f 56/107/54 13/1/1 2/117/13 32/118/45
f 26/48/33 55/116/55 31/119/44 6/120/43
f 38/22/19 40/21/18 39/41/27 37/40/25
f 33/7/7 34/4/4 36/3/3 35/11/10
