# Blender v2.81 (sub 16) OBJ File: 'tree1.blend'
# www.blender.org
mtllib Lantern_MSH.mtl
o Lantern.001_Cylinder.002
v 0.676655 0.946287 -0.313033
v 0.720654 0.731485 -0.265195
v 0.676655 0.946287 -0.289147
v 0.720654 0.731485 -0.249483
v 0.716578 0.760038 -0.268335
v 0.716578 0.760038 -0.252086
v 0.681544 0.922886 -0.308851
v 0.681544 0.922886 -0.285680
v 0.708277 0.946287 -0.313033
v 0.743753 0.731485 -0.265195
v 0.708277 0.946287 -0.289147
v 0.743753 0.731485 -0.249483
v 0.740467 0.760038 -0.268335
v 0.712219 0.922886 -0.308851
v 0.695595 0.731623 -0.265195
v 0.695595 0.731623 -0.249483
v 0.691519 0.760177 -0.268335
v 0.691519 0.760177 -0.252086
v 0.743753 0.731596 -0.286528
v 0.720654 0.731596 -0.286528
v 0.716578 0.760149 -0.289668
v 0.740467 0.760149 -0.289668
v 0.740467 0.760069 -0.251856
v 0.712219 0.922917 -0.290550
v 0.739574 0.760717 -0.252086
v 0.704540 0.923565 -0.285680
v 0.616569 1.061349 -0.185427
v 0.616569 1.121487 -0.185427
v 0.616569 0.917758 -0.359787
v 0.649494 0.936703 -0.336782
v 0.650835 1.020654 -0.185427
v 0.649494 0.896008 -0.336782
v 0.650835 1.061349 -0.185427
v 0.666489 1.020639 -0.185575
v 0.665149 0.895993 -0.336930
v 0.666393 0.936703 -0.336782
v 1.003300 0.946287 -0.313033
v 0.959300 0.731485 -0.265195
v 1.003300 0.946287 -0.289147
v 0.959300 0.731485 -0.249483
v 0.963376 0.760038 -0.268335
v 0.963376 0.760038 -0.252086
v 0.998410 0.922886 -0.308851
v 0.998410 0.922886 -0.285680
v 0.971677 0.946287 -0.313033
v 0.936201 0.731485 -0.265195
v 0.971677 0.946287 -0.289147
v 0.936201 0.731485 -0.249483
v 0.939488 0.760038 -0.268335
v 0.967735 0.922886 -0.308851
v 0.984359 0.731623 -0.265195
v 0.984359 0.731623 -0.249483
v 0.988436 0.760177 -0.268335
v 0.988436 0.760177 -0.252086
v 0.936201 0.731596 -0.286528
v 0.959300 0.731596 -0.286528
v 0.963376 0.760149 -0.289668
v 0.939488 0.760149 -0.289668
v 0.939488 0.760069 -0.251856
v 0.967735 0.922917 -0.290550
v 0.940870 0.760126 -0.251487
v 0.975905 0.922973 -0.285080
v 1.063385 1.061349 -0.185427
v 1.063385 1.121487 -0.185427
v 1.063385 0.917758 -0.359787
v 1.030460 0.936703 -0.336782
v 1.029120 1.020654 -0.185427
v 1.030460 0.896008 -0.336782
v 1.029120 1.061349 -0.185427
v 1.013465 1.020639 -0.185575
v 1.014806 0.895993 -0.336930
v 1.013561 0.936703 -0.336782
v 0.971677 1.035899 -0.171614
v 0.676655 0.946287 -0.030195
v 0.720654 0.731485 -0.078034
v 0.676655 0.946287 -0.054082
v 0.720654 0.731485 -0.093746
v 0.716578 0.760038 -0.074894
v 0.716578 0.760038 -0.091143
v 0.681544 0.922886 -0.034378
v 0.681544 0.922886 -0.057549
v 0.708277 0.946287 -0.030195
v 0.743753 0.731485 -0.078034
v 0.708277 0.946287 -0.054082
v 0.743753 0.731485 -0.093746
v 0.740467 0.760038 -0.074894
v 0.712219 0.922886 -0.034378
v 0.695595 0.731623 -0.078034
v 0.695595 0.731623 -0.093746
v 0.691519 0.760177 -0.074894
v 0.691519 0.760177 -0.091143
v 0.743753 0.731596 -0.056701
v 0.720654 0.731596 -0.056701
v 0.716578 0.760149 -0.053561
v 0.740467 0.760149 -0.053561
v 0.740467 0.760069 -0.091373
v 0.712219 0.922917 -0.052678
v 0.739574 0.760717 -0.091143
v 0.704540 0.923565 -0.057549
v 0.616569 1.061349 -0.157802
v 0.616569 1.121487 -0.157802
v 0.616569 0.917758 0.016558
v 0.649494 0.936703 -0.006447
v 0.650835 1.020654 -0.157802
v 0.649494 0.896008 -0.006447
v 0.650835 1.061349 -0.157802
v 0.666489 1.020639 -0.157654
v 0.665149 0.895993 -0.006299
v 0.666393 0.936703 -0.006447
v 1.003300 0.946287 -0.030195
v 0.959300 0.731485 -0.078034
v 1.003300 0.946287 -0.054082
v 0.959300 0.731485 -0.093746
v 0.963376 0.760038 -0.074894
v 0.963376 0.760038 -0.091143
v 0.998410 0.922886 -0.034378
v 0.998410 0.922886 -0.057549
v 0.971677 0.946287 -0.030195
v 0.936201 0.731485 -0.078034
v 0.971677 0.946287 -0.054082
v 0.936201 0.731485 -0.093746
v 0.939488 0.760038 -0.074894
v 0.967735 0.922886 -0.034378
v 0.984359 0.731623 -0.078034
v 0.984359 0.731623 -0.093746
v 0.988436 0.760177 -0.074894
v 0.988436 0.760177 -0.091143
v 0.936201 0.731595 -0.056701
v 0.959300 0.731595 -0.056701
v 0.963376 0.760149 -0.053561
v 0.939488 0.760149 -0.053561
v 0.939488 0.760069 -0.091373
v 0.967735 0.922917 -0.052678
v 0.940870 0.760126 -0.090543
v 0.975905 0.922973 -0.056950
v 1.063385 1.061349 -0.157802
v 1.063385 1.121487 -0.157802
v 1.063385 0.917758 0.016558
v 1.030460 0.936703 -0.006447
v 1.029120 1.020654 -0.157802
v 1.030460 0.896008 -0.006447
v 1.029120 1.061349 -0.157802
v 1.013465 1.020639 -0.157654
v 1.014806 0.895993 -0.006299
v 1.013561 0.936703 -0.006447
v 0.708277 1.035899 -0.171614
v 0.839977 0.063974 -0.217833
v 0.839977 0.763272 -0.217833
v 0.867144 0.063974 -0.209006
v 0.867144 0.763272 -0.209006
v 0.883933 0.063974 -0.185897
v 0.883933 0.763272 -0.185897
v 0.883933 0.063974 -0.157332
v 0.883933 0.763272 -0.157332
v 0.867144 0.063974 -0.134223
v 0.867144 0.763272 -0.134223
v 0.839977 0.063974 -0.125396
v 0.839977 0.763272 -0.125396
v 0.812811 0.063974 -0.134223
v 0.812811 0.763272 -0.134223
v 0.796021 0.063974 -0.157332
v 0.796021 0.763272 -0.157332
v 0.796021 0.063974 -0.185897
v 0.796021 0.763272 -0.185897
v 0.812811 0.063974 -0.209006
v 0.812811 0.763272 -0.209006
v 0.839977 -0.000348 -0.171615
vt 0.030014 0.745928
vt 0.025897 0.754730
vt 0.019116 0.753158
vt 0.019274 0.739202
vt 0.026108 0.761873
vt 0.013483 0.763060
vt 0.092795 0.773111
vt 0.087620 0.776347
vt 0.090569 0.772293
vt 0.090559 0.772346
vt 0.094335 0.769390
vt 0.091811 0.771391
vt 0.091395 0.769482
vt 0.092050 0.769051
vt 0.107501 0.796237
vt 0.103831 0.799257
vt 0.087677 0.776439
vt 0.086696 0.769836
vt 0.087945 0.775327
vt 0.091261 0.764183
vt 0.003027 0.744321
vt 0.095660 0.771321
vt 0.050874 0.773111
vt 0.094338 0.825087
vt 0.095369 0.843645
vt 0.110108 0.794800
vt 0.133951 0.687245
vt 0.137689 0.697984
vt 0.015536 0.728463
vt 0.091644 0.763614
vt 0.125404 0.746175
vt 0.127564 0.750953
vt 0.090598 0.772338
vt 0.090590 0.772299
vt 0.090803 0.768901
vt 0.091351 0.768482
vt 0.091327 0.768458
vt 0.095122 0.993234
vt 0.104712 0.995247
vt 0.132056 0.963885
vt 0.136571 0.706538
vt 0.052586 0.747714
vt 0.091444 0.759481
vt 0.129465 0.718553
vt 0.052686 0.747258
vt 0.084511 0.779778
vt 0.051006 0.772668
vt 0.229557 0.843876
vt 0.229557 0.853623
vt 0.173778 0.853242
vt 0.165300 0.843876
vt 0.092953 0.980493
vt 0.092782 0.990282
vt 0.129716 0.960934
vt 0.129887 0.951144
vt 0.136361 0.961050
vt 0.129615 0.964699
vt 0.136331 0.964816
vt 0.088888 0.980422
vt 0.089016 0.990220
vt 0.246665 0.826767
vt 0.254524 0.826767
vt 0.254524 0.843876
vt 0.246665 0.843876
vt 0.432820 0.816038
vt 0.448852 0.895956
vt 0.339423 0.895843
vt 0.355620 0.815958
vt 0.092017 0.852111
vt 0.080037 0.862676
vt 0.001503 0.773625
vt 0.301393 0.694240
vt 0.301393 0.816806
vt 0.221104 0.803256
vt 0.221104 0.707790
vt 0.128615 0.753376
vt 0.113332 0.801316
vt 0.144508 0.782914
vt 0.144658 0.786543
vt 0.116278 0.803608
vt 0.145743 0.771126
vt 0.136270 0.749886
vt 0.139625 0.750803
vt 0.148644 0.771598
vt 0.145499 0.702797
vt 0.143944 0.707636
vt 0.152699 0.702767
vt 0.148600 0.710317
vt 0.131861 0.752051
vt 0.132806 0.749420
vt 0.133567 0.748270
vt 0.136208 0.749800
vt 0.128473 0.748932
vt 0.129067 0.748663
vt 0.130663 0.750003
vt 0.142873 0.773410
vt 0.130506 0.745850
vt 0.132945 0.746062
vt 0.125555 0.745906
vt 0.146028 0.690895
vt 0.196343 0.774463
vt 0.182420 0.768570
vt 0.150864 0.720566
vt 0.139879 0.775588
vt 0.132264 0.749059
vt 0.132590 0.748203
vt 0.133572 0.748245
vt 0.128417 0.748207
vt 0.128897 0.748056
vt 0.125457 0.746135
vt 0.169807 0.994537
vt 0.133920 0.963918
vt 0.160152 0.996215
vt 0.122768 0.743894
vt 0.129755 0.718646
vt 0.150694 0.720597
vt 0.134513 0.747494
vt 0.229557 0.970985
vt 0.165300 0.970985
vt 0.173778 0.961619
vt 0.229557 0.961238
vt 0.084748 0.981559
vt 0.049743 0.949934
vt 0.049295 0.959715
vt 0.084300 0.991339
vt 0.046773 0.962512
vt 0.081778 0.994137
vt 0.042656 0.959410
vt 0.042448 0.963171
vt 0.049158 0.963479
vt 0.088810 0.981745
vt 0.088063 0.991515
vt 0.246665 0.970985
vt 0.254524 0.970985
vt 0.254524 0.988094
vt 0.246665 0.988094
vt 0.043104 0.949630
vt 0.432655 0.976119
vt 0.355455 0.976039
vt 0.339423 0.896121
vt 0.448852 0.896234
vt 0.162233 0.695689
vt 0.214845 0.766564
vt 0.205311 0.773641
vt 0.136532 0.951260
vt 0.108106 0.845586
vt 0.108585 0.854338
vt 0.099707 0.850844
vt 0.100521 0.845684
vt 0.107272 0.798323
vt 0.107323 0.798096
vt 0.103861 0.799318
vt 0.110994 0.796794
vt 0.110162 0.798582
vt 0.109628 0.798820
vt 0.108436 0.797691
vt 0.107754 0.801703
vt 0.104169 0.799475
vt 0.113094 0.801520
vt 0.101304 0.863311
vt 0.209716 0.800715
vt 0.114233 0.862997
vt 0.204068 0.792056
vt 0.141570 0.777695
vt 0.107142 0.798254
vt 0.107189 0.798077
vt 0.110209 0.799250
vt 0.109745 0.799399
vt 0.110207 0.799265
vt 0.113281 0.801362
vt 0.194670 0.788263
vt 0.116056 0.803631
vt 0.113259 0.831736
vt 0.113557 0.831778
vt 0.179196 0.790636
vt 0.094718 0.825164
vt 0.100273 0.800968
vt 0.271632 0.843876
vt 0.335889 0.843876
vt 0.327411 0.853242
vt 0.271632 0.853623
vt 0.172419 0.981880
vt 0.172249 0.991669
vt 0.176485 0.981951
vt 0.176014 0.991739
vt 0.381960 0.707790
vt 0.381960 0.803256
vt 0.301670 0.816806
vt 0.301670 0.694240
vt 0.197025 0.780420
vt 0.202387 0.781008
vt 0.145757 0.771168
vt 0.147389 0.773022
vt 0.145641 0.773517
vt 0.144176 0.775339
vt 0.144618 0.777577
vt 0.143942 0.778032
vt 0.148615 0.777727
vt 0.149816 0.774717
vt 0.144839 0.782540
vt 0.215558 0.785746
vt 0.145786 0.774121
vt 0.146862 0.774128
vt 0.145190 0.778169
vt 0.144658 0.778594
vt 0.144583 0.782889
vt 0.179203 0.790325
vt 0.144824 0.786642
vt 0.148744 0.771566
vt 0.182187 0.768751
vt 0.271632 0.970986
vt 0.271632 0.961238
vt 0.327411 0.961619
vt 0.335889 0.970985
vt 0.005353 0.977920
vt 0.004905 0.987700
vt 0.007160 0.990717
vt 0.044911 0.962427
vt 0.001292 0.977733
vt 0.001142 0.987531
vt 0.016689 0.993001
vt 0.100099 0.800811
vt 0.084835 0.779868
vt 0.173778 0.858049
vt 0.173778 0.956812
vt 0.327411 0.956812
vt 0.327411 0.858049
vt 0.246665 0.817020
vt 0.254524 0.817020
vt 0.254524 0.997841
vt 0.246665 0.997841
vt 0.215558 0.711069
vt 0.006822 0.848090
vt 0.091621 0.759642
vt 0.122465 0.743896
vt 0.128298 0.936803
vt 0.001503 0.936803
vt 0.001503 0.929202
vt 0.128298 0.929201
vt 0.001503 0.921600
vt 0.128298 0.921600
vt 0.001503 0.913998
vt 0.128298 0.913998
vt 0.001503 0.906396
vt 0.128298 0.906396
vt 0.001503 0.898794
vt 0.128298 0.898794
vt 0.001503 0.891192
vt 0.128298 0.891192
vt 0.001503 0.883590
vt 0.128298 0.883591
vt 0.001503 0.875988
vt 0.128298 0.875989
vt 0.001503 0.868386
vt 0.128298 0.868387
vt 0.128298 0.944405
vt 0.001503 0.944405
vt 0.149031 0.872188
vt 0.149031 0.879790
vt 0.149031 0.887392
vt 0.149031 0.894993
vt 0.149031 0.902595
vt 0.149031 0.910197
vt 0.149031 0.933002
vt 0.149031 0.917799
vt 0.149031 0.925400
vt 0.149031 0.940604
vn 0.2400 -0.4235 -0.8735
vn -0.6709 -0.2850 -0.6845
vn -0.6260 0.4779 -0.6162
vn 0.0000 0.6419 -0.7668
vn -0.8718 -0.4216 0.2494
vn -0.7761 0.6307 0.0000
vn -0.3125 -0.9113 0.2682
vn -0.5229 0.5771 0.6273
vn -0.6255 0.5607 0.5426
vn -0.5299 -0.5839 0.6150
vn 0.2770 -0.9053 -0.3219
vn -0.2656 -0.9282 -0.2607
vn -0.5356 -0.6412 -0.5496
vn 0.6202 -0.5697 -0.5393
vn -0.3125 -0.9113 -0.2682
vn -0.5229 0.5771 -0.6273
vn -0.6585 0.3660 -0.6576
vn 0.6342 0.5771 -0.5146
vn -0.1369 0.9906 0.0000
vn 0.0000 -1.0000 0.0000
vn -0.4964 -0.5733 0.6519
vn -0.4964 -0.5733 -0.6519
vn -0.8718 -0.4216 -0.2494
vn 0.1369 0.9906 0.0000
vn -0.6342 0.5771 -0.5146
vn -0.2770 -0.9053 -0.3219
vn -0.5371 -0.6411 -0.5483
vn -0.6119 0.5135 -0.6016
vn -0.6128 0.5134 -0.6008
vn 0.5363 0.5756 -0.6172
vn 0.5404 -0.7597 -0.3616
vn 0.2733 0.6317 -0.7255
vn 0.0638 -0.9388 0.3384
vn -0.2400 -0.4235 -0.8735
vn 0.6463 -0.5789 -0.4971
vn 0.5159 0.5453 -0.6607
vn -0.6463 -0.5789 -0.4971
vn -0.6639 0.5495 0.5072
vn -0.5180 -0.1181 -0.8472
vn -0.4265 0.1485 -0.8922
vn -0.2940 0.6295 -0.7192
vn -0.0000 0.7719 -0.6357
vn -0.5505 -0.7566 -0.3530
vn -0.7896 -0.5765 0.2102
vn -0.7896 -0.5765 -0.2102
vn 0.0638 -0.9388 -0.3384
vn -0.5180 -0.1181 0.8472
vn -0.5774 0.5774 0.5774
vn -0.5774 0.5774 -0.5774
vn -0.6639 0.5495 -0.5072
vn -0.5159 0.5453 -0.6607
vn 0.6342 0.5771 0.5146
vn -0.6342 0.5771 0.5146
vn -0.5159 0.5453 0.6607
vn 0.5159 0.5453 0.6607
vn 0.5067 0.5864 -0.6319
vn 0.5222 0.5719 0.6327
vn 0.6629 0.5581 0.4990
vn 0.6517 0.5577 -0.5140
vn 0.6260 0.4779 -0.6162
vn 0.6709 -0.2850 -0.6845
vn 0.7761 0.6307 0.0000
vn 0.8768 -0.4155 0.2420
vn 0.3125 -0.9113 0.2682
vn 0.5299 -0.5839 0.6150
vn 0.6255 0.5607 0.5426
vn -0.6202 -0.5697 -0.5393
vn 0.5356 -0.6412 -0.5496
vn 0.2656 -0.9282 -0.2607
vn 0.3125 -0.9113 -0.2682
vn 0.6585 0.3660 -0.6576
vn 0.8710 -0.4256 -0.2454
vn 0.4946 -0.5619 -0.6631
vn 0.5112 -0.5680 0.6450
vn 0.5371 -0.6411 -0.5483
vn 0.6119 0.5135 -0.6016
vn -0.5363 0.5756 -0.6172
vn 0.6128 0.5134 -0.6008
vn 0.5404 -0.7597 0.3616
vn 0.2733 0.6317 0.7255
vn 0.5180 -0.1181 -0.8472
vn 0.2940 0.6295 -0.7192
vn 0.4265 0.1485 -0.8922
vn 0.7896 -0.5765 0.2102
vn 0.5505 -0.7566 -0.3530
vn -0.0023 -0.9409 0.3388
vn -0.0008 -0.8950 -0.4461
vn 0.7896 -0.5765 -0.2102
vn -0.0638 -0.9388 -0.3384
vn 0.0009 0.6593 -0.7519
vn 0.5774 0.5773 -0.5774
vn 0.5774 0.5773 0.5774
vn 0.5180 -0.1181 0.8472
vn 0.4265 0.1485 0.8922
vn -0.4265 0.1485 0.8922
vn 0.2400 -0.4235 0.8735
vn 0.0000 0.6419 0.7668
vn -0.6260 0.4779 0.6162
vn -0.6709 -0.2850 0.6845
vn -0.5299 -0.5839 -0.6150
vn -0.6255 0.5607 -0.5426
vn 0.2770 -0.9053 0.3219
vn 0.6202 -0.5697 0.5393
vn -0.5356 -0.6412 0.5496
vn -0.2656 -0.9282 0.2607
vn -0.6585 0.3660 0.6576
vn -0.2770 -0.9053 0.3219
vn -0.5371 -0.6411 0.5483
vn -0.6119 0.5135 0.6016
vn 0.5363 0.5756 0.6172
vn -0.6128 0.5134 0.6008
vn -0.2400 -0.4235 0.8735
vn 0.6463 -0.5789 0.4971
vn -0.6463 -0.5789 0.4971
vn 0.0000 0.7719 0.6357
vn -0.2940 0.6295 0.7192
vn -0.5505 -0.7566 0.3530
vn 0.6709 -0.2850 0.6845
vn 0.6260 0.4779 0.6162
vn 0.6255 0.5607 -0.5426
vn 0.5299 -0.5839 -0.6150
vn 0.2656 -0.9282 0.2607
vn 0.5356 -0.6412 0.5496
vn -0.6202 -0.5697 0.5393
vn 0.6585 0.3660 0.6576
vn 0.5371 -0.6411 0.5483
vn 0.6119 0.5135 0.6016
vn 0.6128 0.5134 0.6008
vn -0.5363 0.5756 0.6172
vn 0.2940 0.6295 0.7192
vn 0.5505 -0.7566 0.3530
vn -0.5404 -0.7597 0.3616
vn -0.2733 0.6316 0.7255
vn 0.2734 0.6317 -0.7255
vn 0.0010 0.6593 -0.7519
vn -0.2734 0.6317 0.7255
vn 0.2734 0.6317 0.7255
vn 1.0000 0.0000 0.0000
vn -1.0000 -0.0000 0.0000
vn -0.0000 -0.2902 -0.9570
vn -0.0000 0.0000 -1.0000
vn 0.5878 0.0000 -0.8090
vn 0.5625 -0.2902 -0.7742
vn 0.9511 0.0000 -0.3090
vn 0.9101 -0.2902 -0.2957
vn 0.9511 -0.0000 0.3090
vn 0.9101 -0.2902 0.2957
vn 0.5878 -0.0000 0.8090
vn 0.5625 -0.2902 0.7742
vn -0.0000 -0.0000 1.0000
vn -0.0000 -0.2902 0.9570
vn -0.5878 -0.0000 0.8090
vn -0.5625 -0.2902 0.7742
vn -0.9511 0.0000 0.3090
vn -0.9101 -0.2902 0.2957
vn -0.9511 0.0000 -0.3090
vn -0.9101 -0.2902 -0.2957
vn -0.5878 0.0000 -0.8090
vn -0.5625 -0.2902 -0.7742
usemtl Checker.001
s 1
f 14/1/1 7/2/2 1/3/3 9/4/4
f 7/2/2 8/5/5 3/6/6 1/3/3
f 4/7/7 6/8/8 18/9/9 16/10/10
f 10/11/11 2/12/12 20/13/13 19/14/14
f 77/15/15 79/16/16 6/17/8 4/7/7
f 5/18/17 6/19/8 8/5/5 7/2/2
f 13/20/18 5/18/17 7/2/2 14/1/1
f 3/6/6 11/21/19 9/4/4 1/3/3
f 4/7/7 2/12/12 10/11/11 12/22/20
f 26/23/21 99/24/22 81/25/23 8/5/5
f 12/22/20 85/26/20 77/15/15 4/7/7
f 47/27/24 45/28/4 9/4/4 11/29/19
f 13/30/18 49/31/25 46/32/26 10/11/11
f 15/33/27 16/10/10 18/9/9 17/34/28
f 6/19/8 5/18/17 17/34/28 18/9/9
f 2/12/12 4/7/7 16/10/10 15/33/27
f 5/18/17 2/12/12 15/33/27 17/34/28
f 19/14/14 20/13/13 21/35/29 22/36/30
f 5/18/17 13/20/18 22/37/30 21/35/29
f 2/12/12 5/18/17 21/35/29 20/13/13
f 13/30/18 10/11/11 19/14/14 22/36/30
f 35/38/31 36/39/32 34/40/33
f 9/4/4 45/28/4 50/41/34 14/1/1
f 13/20/18 14/1/1 24/42/35 23/43/36
f 50/41/34 60/44/37 24/45/35 14/1/1
f 8/5/5 6/19/8 25/46/38 26/47/21
f 27/48/39 33/49/40 30/50/41 29/51/42
f 30/52/41 32/53/43 31/54/44 33/55/40
f 32/53/43 35/38/31 34/40/33 31/54/44
f 104/56/45 31/54/44 34/57/33 107/58/46
f 36/59/32 35/60/31 32/53/43 30/52/41
f 27/61/39 100/62/47 101/63/48 28/64/49
f 98/65/50 99/66/22 26/67/21 25/68/38
f 3/6/6 76/69/6 84/70/19 11/71/19
f 81/25/23 76/69/6 3/6/6 8/5/5
f 24/72/35 60/73/37 59/74/51 23/75/36
f 48/76/20 12/22/20 10/11/11 46/32/26
f 86/77/52 122/78/53 132/79/54 96/80/55
f 115/81/56 42/82/57 61/83/58 134/84/59
f 50/41/34 45/28/4 37/85/60 43/86/61
f 43/86/61 37/85/60 39/87/62 44/88/63
f 40/89/64 52/90/65 54/91/66 42/92/57
f 46/32/26 55/93/67 56/94/68 38/95/69
f 113/96/70 40/89/64 42/82/57 115/81/56
f 41/97/71 43/86/61 44/88/63 42/98/57
f 49/99/25 50/41/34 43/86/61 41/97/71
f 39/87/62 37/85/60 45/28/4 47/100/24
f 40/89/64 48/76/20 46/32/26 38/95/69
f 44/88/63 117/101/72 135/102/73 62/103/74
f 40/89/64 113/96/70 121/104/20 48/76/20
f 51/105/75 53/106/76 54/91/66 52/90/65
f 42/98/57 54/107/66 53/106/76 41/97/71
f 38/95/69 51/105/75 52/90/65 40/89/64
f 41/97/71 53/106/76 51/105/75 38/95/69
f 55/93/67 58/108/77 57/109/78 56/94/68
f 41/97/71 57/109/78 58/108/77 49/99/25
f 38/95/69 56/94/68 57/109/78 41/97/71
f 49/110/25 58/108/77 55/93/67 46/32/26
f 108/111/79 107/112/46 109/113/80
f 49/99/25 59/114/51 60/115/37 50/41/34
f 44/88/63 62/116/74 61/117/58 42/98/57
f 63/118/81 65/119/42 66/120/82 69/121/83
f 66/122/82 69/123/83 67/124/84 68/125/85
f 68/125/85 67/124/84 70/126/86 71/127/87
f 140/128/88 143/129/89 70/130/86 67/124/84
f 72/131/90 66/122/82 68/125/85 71/132/87
f 64/133/91 137/134/92 136/135/93 63/136/81
f 142/137/94 140/128/88 67/124/84 69/123/83
f 134/138/59 61/139/58 62/140/74 135/141/73
f 47/142/24 120/143/24 112/144/62 39/87/62
f 117/101/72 44/88/63 39/87/62 112/144/62
f 106/145/95 33/55/40 31/54/44 104/56/45
f 87/146/96 82/147/97 74/148/98 80/149/99
f 80/149/99 74/148/98 76/69/6 81/25/23
f 77/15/15 89/150/100 91/151/101 79/152/16
f 83/153/102 92/154/103 93/155/104 75/156/105
f 78/157/106 80/149/99 81/25/23 79/158/16
f 86/159/52 87/146/96 80/149/99 78/157/106
f 76/69/6 74/148/98 82/147/97 84/160/19
f 77/15/15 85/26/20 83/153/102 75/156/105
f 120/161/24 84/162/19 82/147/97 118/163/97
f 83/153/102 119/164/107 122/78/53 86/77/52
f 88/165/108 90/166/109 91/151/101 89/150/100
f 79/158/16 91/151/101 90/166/109 78/157/106
f 75/156/105 88/165/108 89/150/100 77/15/15
f 78/157/106 90/166/109 88/165/108 75/156/105
f 92/154/103 95/167/110 94/168/111 93/155/104
f 78/157/106 94/168/111 95/169/110 86/159/52
f 75/156/105 93/155/104 94/168/111 78/157/106
f 86/170/52 95/167/110 92/154/103 83/153/102
f 87/146/96 123/171/112 118/163/97 82/147/97
f 86/159/52 96/172/55 97/173/113 87/146/96
f 123/171/112 87/146/96 97/174/113 133/175/114
f 81/25/23 99/176/22 98/177/50 79/158/16
f 28/64/49 101/63/48 137/134/92 64/133/91
f 100/178/47 102/179/115 103/180/116 106/181/95
f 103/182/116 106/145/95 104/56/45 105/183/117
f 105/183/117 104/56/45 107/112/46 108/111/79
f 109/184/80 103/182/116 105/183/117 108/185/79
f 96/186/55 132/187/54 133/188/114 97/189/113
f 121/104/20 119/164/107 83/153/102 85/26/20
f 48/76/20 121/104/20 85/26/20 12/22/20
f 123/171/112 116/190/118 110/191/119 118/163/97
f 116/190/118 117/101/72 112/144/62 110/191/119
f 113/96/70 115/192/56 127/193/120 125/194/121
f 119/164/107 111/195/122 129/196/123 128/197/124
f 114/198/125 115/199/56 117/101/72 116/190/118
f 122/200/53 114/198/125 116/190/118 123/171/112
f 112/144/62 120/201/24 118/163/97 110/191/119
f 113/96/70 111/195/122 119/164/107 121/104/20
f 124/202/126 125/194/121 127/193/120 126/203/127
f 115/199/56 114/198/125 126/203/127 127/193/120
f 111/195/122 113/96/70 125/194/121 124/202/126
f 114/198/125 111/195/122 124/202/126 126/203/127
f 128/197/124 129/196/123 130/204/128 131/205/129
f 114/198/125 122/200/53 131/205/129 130/204/128
f 111/195/122 114/198/125 130/204/128 129/196/123
f 122/206/53 119/164/107 128/197/124 131/205/129
f 122/200/53 123/171/112 133/207/114 132/208/54
f 117/101/72 115/199/56 134/209/59 135/210/73
f 136/211/93 142/212/94 139/213/130 138/214/115
f 139/215/130 141/216/131 140/128/88 142/137/94
f 141/216/131 144/217/132 143/218/89 140/128/88
f 145/219/133 144/220/132 141/216/131 139/215/130
f 145/221/133 143/218/89 144/217/132
f 79/16/16 98/222/50 25/223/38 6/17/8
f 65/119/42 29/51/42 36/224/134 72/225/135
f 145/226/136 109/227/137 102/179/115 138/214/115
f 145/226/136 138/214/115 139/213/130
f 103/180/116 102/179/115 109/227/137
f 29/51/42 30/50/41 36/224/134
f 72/225/135 66/120/82 65/119/42
f 64/133/91 69/121/83 33/49/40 28/64/49
f 64/133/91 63/118/81 69/121/83
f 28/64/49 33/49/40 27/48/39
f 106/181/95 109/227/137 145/226/136 142/212/94
f 103/180/116 109/227/137 106/181/95
f 142/212/94 145/226/136 139/213/130
f 106/181/95 142/212/94 137/134/92 101/63/48
f 137/134/92 142/212/94 136/211/93
f 101/63/48 100/178/47 106/181/95
f 72/225/135 36/224/134 33/49/40 69/121/83
f 69/121/83 66/120/82 72/225/135
f 30/50/41 33/49/40 36/224/134
f 33/228/40 106/229/95 100/62/47 27/61/39
f 142/230/94 69/231/83 63/136/81 136/135/93
f 120/143/24 47/142/24 73/232/138
f 11/71/19 84/70/19 146/233/139
f 23/234/36 59/235/51 49/31/25 13/30/18
f 147/236/140 148/237/141 150/238/142 149/239/143
f 149/239/143 150/238/142 152/240/144 151/241/145
f 151/241/145 152/240/144 154/242/146 153/243/147
f 153/243/147 154/242/146 156/244/148 155/245/149
f 155/245/149 156/244/148 158/246/150 157/247/151
f 157/247/151 158/246/150 160/248/152 159/249/153
f 159/249/153 160/248/152 162/250/154 161/251/155
f 161/251/155 162/250/154 164/252/156 163/253/157
f 163/253/157 164/252/156 166/254/158 165/255/159
f 165/256/159 166/257/158 148/237/141 147/236/140
f 163/253/157 165/255/159 167/258/20
f 161/251/155 163/253/157 167/259/20
f 159/249/153 161/251/155 167/260/20
f 157/247/151 159/249/153 167/261/20
f 155/245/149 157/247/151 167/262/20
f 153/243/147 155/245/149 167/263/20
f 147/236/140 149/239/143 167/264/20
f 151/241/145 153/243/147 167/265/20
f 149/239/143 151/241/145 167/266/20
f 165/256/159 147/236/140 167/267/20
